<svg width="48" height="48" viewBox="0 0 48 48" fill="none" xmlns="http://www.w3.org/2000/svg">
<g clip-path="url(#clip0_583_3498)">
<rect width="48" height="48" rx="24" fill="#E12E1D"/>
<rect width="48" height="48" fill="#E12E1D"/>
<path d="M33.8012 23.2001H34.6667H35V22.5715H32.1941H31.6892L31.3894 22.1652L26.9403 16.1351C26.9403 16.1351 26.9403 16.1351 26.9403 16.1351C26.8343 15.9914 26.6194 15.9536 26.4651 16.0642L26.4651 16.0642C26.3192 16.1688 26.2936 16.3589 26.393 16.4937L26.393 16.4937L29.7015 20.9778L30.8773 22.5715H28.8968H19.1032H17.1227L18.2985 20.9778L21.607 16.4937C21.7065 16.3589 21.6808 16.1688 21.535 16.0643L33.8012 23.2001ZM33.8012 23.2001L33.677 24.0566M33.8012 23.2001L33.677 24.0566M33.677 24.0566L32.589 31.5639C32.521 32.0328 32.1079 32.4 31.5988 32.4H16.4012C15.8921 32.4 15.479 32.0328 15.411 31.5639C15.411 31.5639 15.411 31.5639 15.411 31.5639L14.323 24.0566L14.1989 23.2001M33.677 24.0566L14.1989 23.2001M14.1989 23.2001H13.3333M14.1989 23.2001H13.3333M13.3333 23.2001H13V22.5715H15.8059H16.3108M13.3333 23.2001L16.3108 22.5715M16.3108 22.5715L16.6106 22.1652M16.3108 22.5715L16.6106 22.1652M16.6106 22.1652L21.0597 16.1351M16.6106 22.1652L21.0597 16.1351M21.0597 16.1351C21.0597 16.1351 21.0597 16.1351 21.0597 16.1351M21.0597 16.1351L21.0597 16.1351M21.0597 16.1351C21.1657 15.9915 21.3806 15.9536 21.5349 16.0642L21.0597 16.1351ZM26 29.7857V25.1858C26 24.0756 25.091 23.2001 24 23.2001C22.909 23.2001 22 24.0756 22 25.1858V29.7857C22 30.8959 22.909 31.7714 24 31.7714C25.091 31.7714 26 30.8959 26 29.7857ZM30.6667 29.7857V25.1858C30.6667 24.0756 29.7576 23.2001 28.6667 23.2001C27.5757 23.2001 26.6667 24.0756 26.6667 25.1858V29.7857C26.6667 30.8959 27.5757 31.7714 28.6667 31.7714C29.7576 31.7714 30.6667 30.8959 30.6667 29.7857ZM21.3333 29.7857V25.1858C21.3333 24.0756 20.4243 23.2001 19.3333 23.2001C18.2424 23.2001 17.3333 24.0756 17.3333 25.1858V29.7857C17.3333 30.8959 18.2424 31.7714 19.3333 31.7714C20.4243 31.7714 21.3333 30.8959 21.3333 29.7857Z" stroke="white" stroke-width="2"/>
</g>
<defs>
<clipPath id="clip0_583_3498">
<rect width="48" height="48" rx="24" fill="white"/>
</clipPath>
</defs>
</svg>
