<?xml version="1.0" standalone="no"?>
<!DOCTYPE svg PUBLIC "-//W3C//DTD SVG 20010904//EN"
 "http://www.w3.org/TR/2001/REC-SVG-20010904/DTD/svg10.dtd">
<svg version="1.0" xmlns="http://www.w3.org/2000/svg"
 width="50.000000pt" height="50.000000pt" viewBox="0 0 50.000000 50.000000"
 preserveAspectRatio="xMidYMid meet">

<g transform="translate(0.000000,50.000000) scale(0.100000,-0.100000)"
fill="#000000" stroke="none">
<path d="M130 438 c-132 -67 -132 -249 0 -316 50 -25 100 -28 145 -8 29 13 31
13 92 -47 62 -60 86 -68 100 -31 4 10 -13 34 -52 74 l-58 58 17 41 c21 53 20
96 -3 146 -22 48 -44 69 -94 90 -51 21 -95 19 -147 -7z m139 -36 c101 -51 106
-183 9 -242 -41 -25 -82 -25 -127 -2 -101 51 -106 183 -9 242 41 25 82 25 127
2z"/>
</g>
</svg>
