<svg width="26" height="22" viewBox="0 0 26 22" fill="none" xmlns="http://www.w3.org/2000/svg">
<path d="M21.6904 5.46871L24.8506 5.46871C25.0601 5.46871 25.2611 5.38548 25.4092 5.23731C25.5574 5.08915 25.6406 4.8882 25.6406 4.67867L25.6406 1.51851C25.6406 1.30898 25.5574 1.10802 25.4092 0.959864C25.2611 0.811701 25.0601 0.728466 24.8506 0.728466L21.6904 0.728466C21.4809 0.728466 21.2799 0.811701 21.1318 0.959864C20.9836 1.10803 20.9004 1.30898 20.9004 1.51851L20.9004 4.67867C20.9004 4.8882 20.9836 5.08915 21.1318 5.23731C21.2799 5.38548 21.4809 5.46871 21.6904 5.46871ZM21.6904 21.2695L24.8506 21.2695C25.0601 21.2695 25.2611 21.1863 25.4092 21.0381C25.5574 20.89 25.6406 20.689 25.6406 20.4795L25.6406 17.3193C25.6406 17.1098 25.5574 16.9088 25.4092 16.7607C25.2611 16.6125 25.0601 16.5293 24.8506 16.5293L21.6904 16.5293C21.4809 16.5293 21.2799 16.6125 21.1318 16.7607C20.9836 16.9088 20.9004 17.1098 20.9004 17.3193L20.9004 20.4795C20.9004 20.689 20.9836 20.89 21.1318 21.0381C21.2799 21.1863 21.4809 21.2695 21.6904 21.2695ZM21.6904 13.3691L24.8506 13.3691C25.0601 13.3691 25.2611 13.2859 25.4092 13.1377C25.5574 12.9896 25.6406 12.7886 25.6406 12.5791L25.6406 9.41892C25.6406 9.20938 25.5574 9.00843 25.4092 8.86027C25.2611 8.71211 25.0601 8.62888 24.8506 8.62888L21.6904 8.62888C21.4809 8.62888 21.2799 8.71211 21.1318 8.86027C20.9836 9.00843 20.9004 9.20939 20.9004 9.41892L20.9004 12.5791C20.9004 12.7886 20.9836 12.9896 21.1318 13.1377C21.2799 13.2859 21.4809 13.3691 21.6904 13.3691ZM1.14935 4.67867L16.9502 4.67867C17.1597 4.67867 17.3607 4.59544 17.5088 4.44727C17.657 4.29911 17.7402 4.09816 17.7402 3.88863L17.7402 2.30855C17.7402 2.09902 17.657 1.89807 17.5088 1.74991C17.3607 1.60174 17.1597 1.51851 16.9502 1.51851L1.14935 1.51851C0.939821 1.51851 0.738871 1.60174 0.59071 1.74991C0.442547 1.89807 0.359312 2.09902 0.359312 2.30855L0.359312 3.88863C0.359312 4.09816 0.442547 4.29911 0.59071 4.44728C0.738871 4.59544 0.939822 4.67867 1.14935 4.67867ZM1.14935 20.4795L16.9502 20.4795C17.1597 20.4795 17.3607 20.3963 17.5088 20.2481C17.657 20.0999 17.7402 19.899 17.7402 19.6895L17.7402 18.1094C17.7402 17.8998 17.657 17.6989 17.5088 17.5507C17.3607 17.4026 17.1597 17.3193 16.9502 17.3193L1.14935 17.3193C0.939823 17.3193 0.738872 17.4026 0.590711 17.5507C0.442548 17.6989 0.359314 17.8998 0.359314 18.1094L0.359314 19.6895C0.359314 19.899 0.442549 20.0999 0.590712 20.2481C0.738872 20.3963 0.939823 20.4795 1.14935 20.4795ZM1.14935 12.5791L16.9502 12.5791C17.1597 12.5791 17.3607 12.4958 17.5088 12.3477C17.657 12.1995 17.7402 11.9986 17.7402 11.789L17.7402 10.209C17.7402 9.99943 17.657 9.79848 17.5088 9.65031C17.3607 9.50215 17.1597 9.41892 16.9502 9.41892L1.14935 9.41892C0.939822 9.41892 0.738871 9.50215 0.590711 9.65032C0.442548 9.79848 0.359313 9.99943 0.359313 10.209L0.359313 11.789C0.359313 11.9986 0.442548 12.1995 0.590711 12.3477C0.738872 12.4958 0.939822 12.5791 1.14935 12.5791Z" fill="black"/>
</svg>
