<svg width="49" height="46" viewBox="0 0 49 46" fill="none" xmlns="http://www.w3.org/2000/svg">
<rect x="0.5" y="0.5" width="48" height="45" rx="22.5" fill="#FFD0CC"/>
<path fill-rule="evenodd" clip-rule="evenodd" d="M19.3217 10.9247C19.1556 10.4209 18.443 10.4209 18.277 10.9247L17.04 14.6773H13.0569C12.5222 14.6773 12.3019 15.3631 12.7367 15.6745L15.9522 17.9774L14.7203 21.715C14.5537 22.2204 15.1303 22.6442 15.5629 22.3344L18.7993 20.0165L22.0358 22.3344C22.4683 22.6442 23.0449 22.2204 22.8784 21.715L21.6464 17.9774L24.862 15.6745C25.2967 15.3631 25.0764 14.6773 24.5417 14.6773H20.5586L19.3217 10.9247ZM30.9344 12.188C28.2361 12.188 26.0487 14.3754 26.0487 17.0737C26.0487 19.7721 28.2361 21.9595 30.9344 21.9595C33.6328 21.9595 35.8202 19.7721 35.8202 17.0737C35.8202 14.3754 33.6328 12.188 30.9344 12.188ZM17.8997 15.8456L18.7993 13.1163L19.6989 15.8456H22.6077L20.2544 17.5309L21.1538 20.2593L18.7993 18.573L16.4449 20.2593L17.3442 17.5309L14.991 15.8456H17.8997ZM27.3348 17.0737C27.3348 15.0857 28.9464 13.4741 30.9344 13.4741C32.9225 13.4741 34.5341 15.0857 34.5341 17.0737C34.5341 19.0618 32.9225 20.6734 30.9344 20.6734C28.9464 20.6734 27.3348 19.0618 27.3348 17.0737ZM31.6677 24.8223C31.456 24.4557 30.9267 24.4557 30.7151 24.8223L25.5758 33.7238C25.3641 34.0905 25.6287 34.5488 26.0521 34.5488H36.3306C36.754 34.5488 37.0186 34.0905 36.8069 33.7238L31.6677 24.8223ZM14.7373 24.688C14.4336 24.688 14.1873 24.9342 14.1873 25.238V33.9095C14.1873 34.2133 14.4336 34.4595 14.7373 34.4595H23.4089C23.7126 34.4595 23.9589 34.2133 23.9589 33.9095V25.238C23.9589 24.9342 23.7126 24.688 23.4089 24.688H14.7373ZM15.4735 33.1734V25.9741H22.6727V33.1734H15.4735ZM35.0556 33.2627H27.3271L31.1914 26.5696L35.0556 33.2627Z" fill="#E12E1D"/>
</svg>
