<svg width="47" height="48" viewBox="0 0 47 48" fill="none" xmlns="http://www.w3.org/2000/svg">
<rect x="0.5" y="0.5" width="46" height="47" rx="23" fill="#FFD0CC"/>
<path d="M12.7625 23.3101C12.9017 23.4145 13.0768 23.4593 13.2491 23.4347C13.4214 23.4101 13.5768 23.3181 13.6813 23.1788C14.2314 22.4453 14.9448 21.8499 15.7649 21.4399C16.585 21.0298 17.4893 20.8163 18.4063 20.8163C19.3232 20.8163 20.2275 21.0298 21.0476 21.4399C21.8677 21.8499 22.5811 22.4453 23.1313 23.1788C23.2358 23.3179 23.3914 23.4097 23.5637 23.4341C23.736 23.4585 23.9109 23.4135 24.05 23.309C24.0997 23.2724 24.1436 23.2285 24.1802 23.1788C24.7303 22.4453 25.4437 21.8499 26.2638 21.4399C27.0839 21.0298 27.9882 20.8163 28.9052 20.8163C29.8221 20.8163 30.7264 21.0298 31.5465 21.4399C32.3666 21.8499 33.08 22.4453 33.6302 23.1788C33.7347 23.3181 33.8903 23.4101 34.0627 23.4346C34.2351 23.4591 34.4102 23.4141 34.5495 23.3095C34.6887 23.205 34.7807 23.0494 34.8052 22.877C34.8297 22.7046 34.7847 22.5295 34.6802 22.3902C33.854 21.2837 32.7266 20.4384 31.4328 19.9555C32.1224 19.4272 32.6291 18.6962 32.8818 17.865C33.1344 17.0339 33.1203 16.1445 32.8413 15.3218C32.5624 14.4991 32.0327 13.7844 31.3267 13.2783C30.6207 12.7722 29.7739 12.5 28.9052 12.5C28.0365 12.5 27.1896 12.7722 26.4836 13.2783C25.7776 13.7844 25.2479 14.4991 24.969 15.3218C24.6901 16.1445 24.6759 17.0339 24.9286 17.865C25.1812 18.6962 25.6879 19.4272 26.3775 19.9555C25.3425 20.3412 24.4111 20.9616 23.6563 21.7679C22.9011 20.9614 21.9693 20.341 20.9339 19.9555C21.6235 19.4272 22.1302 18.6962 22.3828 17.865C22.6355 17.0339 22.6214 16.1445 22.3424 15.3218C22.0635 14.4991 21.5338 13.7844 20.8278 13.2783C20.1218 12.7722 19.2749 12.5 18.4063 12.5C17.5376 12.5 16.6907 12.7722 15.9847 13.2783C15.2787 13.7844 14.749 14.4991 14.4701 15.3218C14.1911 16.1445 14.177 17.0339 14.4297 17.865C14.6823 18.6962 15.189 19.4272 15.8786 19.9555C14.5845 20.4385 13.4571 21.2841 12.6313 22.3913C12.5268 22.5306 12.482 22.7056 12.5066 22.8779C12.5312 23.0502 12.6233 23.2057 12.7625 23.3101ZM28.9063 13.8163C29.4687 13.8163 30.0185 13.9831 30.4862 14.2956C30.9538 14.6081 31.3183 15.0522 31.5335 15.5718C31.7488 16.0915 31.8051 16.6632 31.6954 17.2149C31.5856 17.7665 31.3148 18.2732 30.9171 18.6709C30.5194 19.0686 30.0127 19.3395 29.461 19.4492C28.9094 19.5589 28.3376 19.5026 27.818 19.2874C27.2984 19.0721 26.8542 18.7076 26.5418 18.24C26.2293 17.7723 26.0625 17.2225 26.0625 16.6601C26.0625 15.9059 26.3621 15.1826 26.8954 14.6492C27.4287 14.1159 28.152 13.8163 28.9063 13.8163ZM18.4063 13.8163C18.9687 13.8163 19.5185 13.9831 19.9862 14.2956C20.4538 14.6081 20.8183 15.0522 21.0335 15.5718C21.2488 16.0915 21.3051 16.6632 21.1954 17.2149C21.0856 17.7665 20.8148 18.2732 20.4171 18.6709C20.0194 19.0686 19.5127 19.3395 18.961 19.4492C18.4094 19.5589 17.8376 19.5026 17.318 19.2874C16.7984 19.0721 16.3542 18.7076 16.0418 18.24C15.7293 17.7723 15.5625 17.2225 15.5625 16.6601C15.5625 15.9059 15.8621 15.1826 16.3954 14.6492C16.9287 14.1159 17.652 13.8163 18.4063 13.8163ZM31.4339 31.3305C32.1235 30.8022 32.6302 30.0712 32.8828 29.24C33.1355 28.4089 33.1214 27.5195 32.8424 26.6968C32.5635 25.8741 32.0338 25.1594 31.3278 24.6533C30.6218 24.1472 29.7749 23.875 28.9063 23.875C28.0376 23.875 27.1907 24.1472 26.4847 24.6533C25.7787 25.1594 25.249 25.8741 24.9701 26.6968C24.6911 27.5195 24.677 28.4089 24.9297 29.24C25.1823 30.0712 25.689 30.8022 26.3786 31.3305C25.3432 31.716 24.4114 32.3364 23.6563 33.1429C22.9011 32.3364 21.9693 31.716 20.9339 31.3305C21.6235 30.8022 22.1302 30.0712 22.3828 29.24C22.6355 28.4089 22.6214 27.5195 22.3424 26.6968C22.0635 25.8741 21.5338 25.1594 20.8278 24.6533C20.1218 24.1472 19.2749 23.875 18.4063 23.875C17.5376 23.875 16.6907 24.1472 15.9847 24.6533C15.2787 25.1594 14.749 25.8741 14.4701 26.6968C14.1911 27.5195 14.177 28.4089 14.4297 29.24C14.6823 30.0712 15.189 30.8022 15.8786 31.3305C14.5845 31.8135 13.4571 32.6591 12.6313 33.7663C12.5795 33.8353 12.5419 33.9137 12.5205 33.9972C12.4991 34.0807 12.4944 34.1676 12.5066 34.2529C12.5188 34.3382 12.5477 34.4203 12.5916 34.4944C12.6355 34.5686 12.6936 34.6334 12.7625 34.6851C12.8314 34.7368 12.9099 34.7744 12.9934 34.7958C13.0769 34.8172 13.1637 34.8219 13.2491 34.8097C13.3344 34.7975 13.4165 34.7687 13.4906 34.7248C13.5648 34.6809 13.6295 34.6228 13.6813 34.5538C14.2314 33.8203 14.9448 33.2249 15.7649 32.8149C16.585 32.4048 17.4893 32.1913 18.4063 32.1913C19.3232 32.1913 20.2275 32.4048 21.0476 32.8149C21.8677 33.2249 22.5811 33.8203 23.1313 34.5538C23.2358 34.6929 23.3914 34.7847 23.5637 34.8091C23.736 34.8335 23.9109 34.7885 24.05 34.684C24.0997 34.6474 24.1436 34.6035 24.1802 34.5538C24.7303 33.8203 25.4437 33.2249 26.2638 32.8149C27.0839 32.4048 27.9882 32.1913 28.9052 32.1913C29.8221 32.1913 30.7264 32.4048 31.5465 32.8149C32.3666 33.2249 33.08 33.8203 33.6302 34.5538C33.7347 34.6931 33.8903 34.7851 34.0627 34.8096C34.2351 34.8341 34.4102 34.7891 34.5495 34.6845C34.6887 34.58 34.7807 34.4244 34.8052 34.252C34.8297 34.0796 34.7847 33.9045 34.6802 33.7652C33.8543 32.6588 32.7273 31.8136 31.4339 31.3305ZM18.4063 25.1913C18.9687 25.1913 19.5185 25.3581 19.9862 25.6706C20.4538 25.9831 20.8183 26.4272 21.0335 26.9468C21.2488 27.4664 21.3051 28.0382 21.1954 28.5899C21.0856 29.1415 20.8148 29.6482 20.4171 30.0459C20.0194 30.4436 19.5127 30.7145 18.961 30.8242C18.4094 30.9339 17.8376 30.8776 17.318 30.6624C16.7984 30.4471 16.3542 30.0826 16.0418 29.615C15.7293 29.1473 15.5625 28.5975 15.5625 28.0351C15.5625 27.2809 15.8621 26.5576 16.3954 26.0242C16.9287 25.4909 17.652 25.1913 18.4063 25.1913ZM28.9063 25.1913C29.4687 25.1913 30.0185 25.3581 30.4862 25.6706C30.9538 25.9831 31.3183 26.4272 31.5335 26.9468C31.7488 27.4664 31.8051 28.0382 31.6954 28.5899C31.5856 29.1415 31.3148 29.6482 30.9171 30.0459C30.5194 30.4436 30.0127 30.7145 29.461 30.8242C28.9094 30.9339 28.3376 30.8776 27.818 30.6624C27.2984 30.4471 26.8542 30.0826 26.5418 29.615C26.2293 29.1473 26.0625 28.5975 26.0625 28.0351C26.0625 27.2809 26.3621 26.5576 26.8954 26.0242C27.4287 25.4909 28.152 25.1913 28.9063 25.1913Z" fill="#E12E1D"/>
</svg>
