<svg width="49" height="48" viewBox="0 0 49 48" fill="none" xmlns="http://www.w3.org/2000/svg">
<rect x="1" width="47" height="48" rx="23.5" fill="#FFD0CC"/>
<path d="M34.3083 12H14.7145C14.2598 12 13.8237 12.1806 13.5022 12.5022C13.1806 12.8237 13 13.2598 13 13.7145V20.9115C13 31.7175 22.1454 35.3032 23.9787 35.9118C24.3241 36.0294 24.6987 36.0294 25.0441 35.9118C26.881 35.2995 36.0228 31.7175 36.0228 20.9115V13.7145C36.0228 13.2598 35.8421 12.8237 35.5206 12.5022C35.1991 12.1806 34.763 12 34.3083 12ZM34.5532 20.914C34.5532 30.7109 26.2454 33.9671 24.58 34.5194C24.5358 34.5365 24.4869 34.5365 24.4428 34.5194C22.7773 33.9671 14.4695 30.7109 14.4695 20.914V13.7145C14.4695 13.6495 14.4953 13.5872 14.5413 13.5413C14.5872 13.4953 14.6495 13.4695 14.7145 13.4695H34.3083C34.3733 13.4695 34.4355 13.4953 34.4815 13.5413C34.5274 13.5872 34.5532 13.6495 34.5532 13.7145V20.914ZM29.9291 19.077C30.0667 19.2148 30.144 19.4016 30.144 19.5963C30.144 19.791 30.0667 19.9778 29.9291 20.1155L23.0712 26.9734C22.9335 27.111 22.7467 27.1882 22.552 27.1882C22.3573 27.1882 22.1705 27.111 22.0328 26.9734L19.0937 24.0343C18.9639 23.895 18.8932 23.7108 18.8966 23.5204C18.9 23.3301 18.9771 23.1484 19.1117 23.0138C19.2463 22.8792 19.4279 22.8021 19.6183 22.7987C19.8086 22.7954 19.9929 22.866 20.1322 22.9958L22.552 25.4108L28.8906 19.0734C29.0284 18.9358 29.2151 18.8585 29.4098 18.8585C29.6045 18.8585 29.7913 18.9358 29.9291 19.0734V19.077Z" fill="#E12E1D"/>
</svg>
