<svg width="49" height="48" viewBox="0 0 49 48" fill="none" xmlns="http://www.w3.org/2000/svg">
<rect x="0.5" width="48" height="48" rx="24" fill="#FFD0CC"/>
<path fill-rule="evenodd" clip-rule="evenodd" d="M28.1121 14.6875C28.1121 16.1787 26.9033 17.3875 25.4121 17.3875C23.921 17.3875 22.7121 16.1787 22.7121 14.6875C22.7121 13.1963 23.921 11.9875 25.4121 11.9875C26.9033 11.9875 28.1121 13.1963 28.1121 14.6875ZM27.6272 18.0187C28.7032 17.3018 29.4121 16.0774 29.4121 14.6875C29.4121 12.4784 27.6213 10.6875 25.4121 10.6875C23.203 10.6875 21.4121 12.4784 21.4121 14.6875C21.4121 16.0439 22.0873 17.2427 23.1199 17.966C21.5714 18.4454 20.2423 19.4236 19.3211 20.7117C19.1122 21.0037 19.1796 21.4097 19.4716 21.6185C19.7636 21.8274 20.1696 21.76 20.3784 21.468C21.4744 19.9356 23.2667 18.9391 25.2918 18.9391C27.3168 18.9391 29.1091 19.9356 30.2051 21.468C30.4139 21.76 30.8199 21.8274 31.1119 21.6185C31.4039 21.4097 31.4713 21.0037 31.2625 20.7117C30.3738 19.4692 29.1057 18.515 27.6272 18.0187Z" fill="#E12E1D"/>
<path fill-rule="evenodd" clip-rule="evenodd" d="M19.7124 28.7898C21.2036 28.7898 22.4124 27.581 22.4124 26.0898C22.4124 24.5987 21.2036 23.3898 19.7124 23.3898C18.2212 23.3898 17.0124 24.5987 17.0124 26.0898C17.0124 27.581 18.2212 28.7898 19.7124 28.7898ZM23.7124 26.0898C23.7124 27.4798 23.0035 28.7042 21.9275 29.4211C23.1618 29.8353 24.2494 30.5688 25.0921 31.5227C25.9718 30.5269 27.1184 29.7713 28.4202 29.3683C27.3876 28.645 26.7124 27.4463 26.7124 26.0898C26.7124 23.8807 28.5033 22.0898 30.7124 22.0898C32.9216 22.0898 34.7124 23.8807 34.7124 26.0898C34.7124 27.4798 34.0035 28.7042 32.9275 29.4211C34.406 29.9173 35.6741 30.8716 36.5628 32.114C36.7716 32.406 36.7042 32.812 36.4122 33.0209C36.1202 33.2297 35.7142 33.1623 35.5054 32.8703C34.4094 31.338 32.6171 30.3414 30.5921 30.3414C28.567 30.3414 26.7747 31.338 25.6787 32.8703C25.5399 33.0645 25.3138 33.1593 25.0921 33.1397C24.8703 33.1593 24.6443 33.0645 24.5054 32.8703C23.4094 31.338 21.6171 30.3414 19.5921 30.3414C17.567 30.3414 15.7747 31.338 14.6787 32.8703C14.4699 33.1623 14.0639 33.2297 13.7719 33.0209C13.4799 32.812 13.4125 32.406 13.6214 32.114C14.5426 30.826 15.8716 29.8477 17.4202 29.3683C16.3876 28.645 15.7124 27.4463 15.7124 26.0898C15.7124 23.8807 17.5033 22.0898 19.7124 22.0898C21.9216 22.0898 23.7124 23.8807 23.7124 26.0898ZM30.7124 28.7898C32.2036 28.7898 33.4124 27.581 33.4124 26.0898C33.4124 24.5987 32.2036 23.3898 30.7124 23.3898C29.2212 23.3898 28.0124 24.5987 28.0124 26.0898C28.0124 27.581 29.2212 28.7898 30.7124 28.7898Z" fill="#E12E1D"/>
<path d="M36.4145 13.0836C36.7728 13.0613 37.0452 12.7528 37.0229 12.3945L36.6599 6.55577C36.6376 6.19748 36.3291 5.92508 35.9708 5.94736C35.6125 5.96964 35.3401 6.27815 35.3624 6.63644L35.6851 11.8264L30.4951 12.1491C30.1368 12.1714 29.8644 12.4799 29.8867 12.8382C29.909 13.1965 30.2175 13.4689 30.5758 13.4466L36.4145 13.0836ZM10.6445 31.2717C10.8025 31.594 11.1919 31.7272 11.5142 31.5693C11.8366 31.4113 11.9698 31.0219 11.8118 30.6995L10.6445 31.2717ZM14.4939 13.181C20.2376 7.36965 29.49 7.22369 35.944 12.9221L36.8044 11.9476C29.8715 5.82634 19.8326 5.93008 13.5693 12.2671L14.4939 13.181ZM11.8118 30.6995C8.93712 24.8344 9.84419 17.8854 14.4939 13.181L13.5693 12.2671C8.50668 17.3893 7.54192 24.9416 10.6445 31.2717L11.8118 30.6995Z" fill="#E12E1D"/>
<path d="M13.9883 34.6291C13.6296 34.6451 13.3519 34.9488 13.3679 35.3074L13.6286 41.1516C13.6446 41.5102 13.9483 41.788 14.3069 41.772C14.6655 41.756 14.9433 41.4523 14.9273 41.0936L14.6956 35.8988L19.8904 35.6671C20.249 35.6511 20.5268 35.3474 20.5108 34.9888C20.4948 34.6301 20.1911 34.3524 19.8325 34.3684L13.9883 34.6291ZM39.7279 16.1987C39.5616 15.8805 39.1689 15.7574 38.8507 15.9237C38.5326 16.09 38.4095 16.4828 38.5758 16.8009L39.7279 16.1987ZM35.9073 34.9156C30.0627 40.6255 20.8091 40.6093 14.4559 34.7988L13.5786 35.7581C20.4032 41.9998 30.4424 42.0719 36.8157 35.8455L35.9073 34.9156ZM38.5758 16.8009C41.7381 22.8503 40.8114 30.1246 35.9073 34.9156L36.8157 35.8455C42.1565 30.6279 43.1386 22.7234 39.7279 16.1987L38.5758 16.8009Z" fill="#E12E1D"/>
</svg>
