<svg width="49" height="48" viewBox="0 0 49 48" fill="none" xmlns="http://www.w3.org/2000/svg">
<rect x="0.5" width="48" height="48" rx="24" fill="#FFD0CC"/>
<path fill-rule="evenodd" clip-rule="evenodd" d="M19.9033 15.6785L24.0399 11.5419C24.2937 11.2881 24.7053 11.2881 24.9591 11.5419L29.0957 15.6785C29.3496 15.9324 29.3496 16.3439 29.0957 16.5978C28.8419 16.8516 28.4303 16.8516 28.1765 16.5978L25.1495 13.5708V26.1311C26.0154 24.4243 27.1055 22.9622 28.433 21.7453C30.1922 20.1327 32.3441 18.9729 34.8904 18.235L31.2319 15.8744C30.9303 15.6797 30.8435 15.2774 31.0382 14.9758C31.2328 14.6741 31.6351 14.5874 31.9368 14.782L36.8523 17.9538C37.1539 18.1485 37.2406 18.5508 37.046 18.8524L33.8742 23.7679C33.6796 24.0696 33.2772 24.1563 32.9756 23.9617C32.674 23.767 32.5872 23.3647 32.7819 23.0631L35.0537 19.5423C32.7602 20.2341 30.8578 21.2861 29.3115 22.7036C27.4423 24.417 26.0598 26.6952 25.1498 29.5988C25.1498 29.937 25.1498 30.2973 25.1498 30.6722C25.1498 32.2258 25.1498 34.0309 25.1498 35.5625L25.1498 36.854L25.1498 38.0078L25.1498 38.7353L25.1498 38.9317L25.1498 38.9827L25.1498 38.9956V38.9989V38.9997V38.9999H25.1497V39H25.1495V39.0016H23.8495L23.8495 29.5982C22.9395 26.6949 21.5571 24.4169 19.6881 22.7036C18.1418 21.2861 16.2393 20.2341 13.9458 19.5423L16.2177 23.0631C16.4123 23.3647 16.3256 23.767 16.0239 23.9617C15.7223 24.1563 15.32 24.0696 15.1253 23.7679L11.9535 18.8524C11.7589 18.5508 11.8456 18.1485 12.1473 17.9538L17.0628 14.782C17.3644 14.5874 17.7667 14.6741 17.9614 14.9758C18.156 15.2774 18.0692 15.6797 17.7676 15.8744L14.1091 18.235C16.6554 18.9729 18.8073 20.1327 20.5665 21.7453C21.8938 22.962 22.9837 24.4238 23.8495 26.1302L23.8495 13.5708L20.8226 16.5978C20.5687 16.8516 20.1572 16.8516 19.9033 16.5978C19.6495 16.3439 19.6495 15.9324 19.9033 15.6785Z" fill="#E12E1D"/>
</svg>
